<svg xmlns="http://www.w3.org/2000/svg" width="80" height="80" viewBox="0 0 80 80"><path d="M70 39.196l-5.02.035-3.953-.67-.266-5.199-.104-7.936-.875-4.795-.311-3.652-6.764-.047-12.106-.152-30.554-.035.091 4.107L10 25.44l.304-.201 2.033-1.566 2.264-2.047 1.926.258 1.371-.908 1.805-1.744.911.711 2.331.211 2.361-1.236 1.804-.82 1.523-.088 1.109 1.148 2.05 1.602 1.237 1.703.706 1.395 2.961 1.986-.463 2.281 4.102 1.887 1.316 1.322 1.068-1.367 1.518 1.627-1.654 2.303-.689 2.104-1.807 1.744-.334 1.646.225 1.498 3.754 1.867 3.389.637 2.252 1.25 1.598.586 1.094-1.492-.807-1.877.283-1.395-1.566-2.033-.775-4.642 1.861-3.977.207-1.672-.809-1.221s1.398-1.035 1.502-1.541c.104-.51.713-1.57.713-1.57l1.727-.707 1.777-.957.227.838-1.398 1.035-1.604 2.709.072.938 1.344.535-.494 4.387-1.801.426-.312 2.84.406-.049 1.195-1.34.982 1.648-1.471.758-.793 2.609 1.488 3.07 2.963.998 1.395-.377 1.713 4.57 1.316.662-.566 2.788-2.545 3.441-1.484 5.371.6 2.893 1.115.359 2.188-2.986 1.199-2.66 1.258-5.549 3.178-3.314 2.752-5.113.899-4.436zm-14.414 5.055l.49 2.145-.158 1.42.594 1.637s.836-.555.889-.811c.051-.252-.082-2.521-.082-2.521l-.197-1.953-1.536.083z"/><circle fill="#ED1F24" cx="50.049" cy="26.495" r="2.194"/><path fill="#E0E0E0" d="M138.751 55.359l-.436-.561-1.191-.322-.871-1.121-.623-2.723-1.314-.721-.883-1.221-9.064.109-20.906-.031-4.289-.17.316-3.301 1.422-.588.711-.406.607-.66.939-.359 1.074-.646.381-.707 1.244-1.082.621-.344.018-.469-.311-1.559-.814-.244-.32-3.053 1.529-.553 2.176-.262 2.01-.219 1.557.082 2.957.527.783.789.738.23 1.105-.404 1.314-.281 2.461.268 1.15-.629 1.141-1.34.939-.752.98.201 1.014-.344.291-1.041-.477-1.119-.014-.711.73-.871.139-.68-.83-.17-.754-.547-.27-.605.172-1.223 3.242-2.01.379-.316.957-1.219 1.791-1.834 1.637-1.475 1.213-.93 1.301-.623 1.559-.287 2.689-.078 1.494.385 2.252-.248 3.729-.244-.232 2.375.514 3.25-.117 2.492-.824 1.719.775 2.359.178 1.059-.656 1.279 1.234.883.271.213.385 5.424-.268 2.461-1.262 5.01-.148 2.643.039 1.738-.016 3.535-.773 3.771-.744.949.668 1.105-.254.709-1.076.645.027.635.635-.027.803-.463 1.305-.992.59-.193.691.455 1.041.293L155 58.917l1.621-1.004.742-.555 1.809 1.154-1.924 1.338-2.09.986-3.828 1.812-1.299.205-2.902.35-1.994.143-.656-.393.047-1.619.488-1.236.125-.996-1.098-.775-2.021-.885-1.703-.9-1.566-1.183z"/><circle fill="#ED1F24" cx="145.45" cy="60.779" r="2.194"/><path fill="#E0E0E0" d="M212.663 60.209v-1.805l.234-2.197 1.1-1.412.861-1.883 1.256-2.039-.234-2.824-.863-1.334-.158-1.57.393-2.666-.234-3.375-.629-7.768-.627-7.453-.393-5.648-.629-.393-.393-1.256-.627-1.803-.783-.863-.707-1.256-.114-2.664-4.807.637-13.203.832-4.217-.207.113 1.15 1.109.334.443.555.221.887 1.887 1.664.334 1.109-.334 1.664-.889 1.777-.332 1.219-1.109.889-.889.332-2.551.666-.332.889-.334.998.334.666.887.777-.111 1.996-.889.777-.332.777v1.33l-.889.223-.775.555-.111.666.111.998-.832.639-.5 1.359.223 1.775 1.109 3.551 3.551 3.662 2.662 1.775-.111 2.107.445.666 3.105.223 1.332.664-.334 1.777-1.109 2.883-.332 1.555 1.109 1.887 3.107 2.551 2.219.334 1 2.439.998 1.555-.445 1.443.777 1.996.89.999 1.438-.164.279-.994 1.1-.863 1.02-.314 1.334.629 1.725.627.551-.156.078-1.1-.629-1.178.158-1.098.941-.705 1.256-.314.783-.314-.393-.863-.312-.941.549-.393.47-1.65z"/><circle fill="#ED1F24" cx="210.311" cy="14.457" r="2.193"/></svg>