<?xml version="1.0" encoding="utf-8"?>
<!-- Generator: Adobe Illustrator 15.1.0, SVG Export Plug-In . SVG Version: 6.00 Build 0)  -->
<!DOCTYPE svg PUBLIC "-//W3C//DTD SVG 1.1//EN" "http://www.w3.org/Graphics/SVG/1.1/DTD/svg11.dtd">
<svg version="1.1" id="Layer_1" xmlns="http://www.w3.org/2000/svg" xmlns:xlink="http://www.w3.org/1999/xlink" x="0px" y="0px"
	 width="80px" height="80px" viewBox="0 0 80 80" enable-background="new 0 0 80 80" xml:space="preserve">
<g>
	<path id="MD_4_" d="M70,39.196l-5.02,0.035l-3.953-0.67l-0.266-5.199l-0.104-7.936l-0.875-4.795l-0.311-3.652l-6.764-0.047
		L40.601,16.78l-30.554-0.035l0.091,4.107L10,25.44l0.304-0.201l2.033-1.566l2.264-2.047l1.926,0.258l1.371-0.908l1.805-1.744
		l0.911,0.711l2.331,0.211l2.361-1.236l1.804-0.82l1.523-0.088l1.109,1.148l2.05,1.602l1.237,1.703l0.706,1.395l2.961,1.986
		l-0.463,2.281l4.102,1.887l1.316,1.322l1.068-1.367l1.518,1.627l-1.654,2.303l-0.689,2.104l-1.807,1.744l-0.334,1.646l0.225,1.498
		l3.754,1.867l3.389,0.637l2.252,1.25l1.598,0.586l1.094-1.492l-0.807-1.877l0.283-1.395l-1.566-2.033L49.2,33.79l1.861-3.977
		l0.207-1.672l-0.809-1.221c0,0,1.398-1.035,1.502-1.541c0.104-0.51,0.713-1.57,0.713-1.57l1.727-0.707l1.777-0.957l0.227,0.838
		l-1.398,1.035l-1.604,2.709l0.072,0.938l1.344,0.535l-0.494,4.387l-1.801,0.426l-0.312,2.84l0.406-0.049l1.195-1.34l0.982,1.648
		l-1.471,0.758l-0.793,2.609l1.488,3.07l2.963,0.998l1.395-0.377l1.713,4.57l1.316,0.662L60.84,51.19l-2.545,3.441l-1.484,5.371
		l0.6,2.893l1.115,0.359l2.188-2.986l1.199-2.66l1.258-5.549l3.178-3.314l2.752-5.113L70,39.196L70,39.196z M55.586,44.251
		l0.49,2.145l-0.158,1.42l0.594,1.637c0,0,0.836-0.555,0.889-0.811c0.051-0.252-0.082-2.521-0.082-2.521l-0.197-1.953L55.586,44.251
		z"/>
	<circle fill="#ED1F24" cx="50.049" cy="26.495" r="2.194"/>
</g>
<g>
	<path id="NY_4_" fill="#E0E0E0" d="M138.751,55.359l-0.436-0.561l-1.191-0.322l-0.871-1.121l-0.623-2.723l-1.314-0.721
		l-0.883-1.221l-9.064,0.109l-20.906-0.031l-4.289-0.17l0.316-3.301l1.422-0.588l0.711-0.406l0.607-0.66l0.939-0.359l1.074-0.646
		l0.381-0.707l1.244-1.082l0.621-0.344l0.018-0.469l-0.311-1.559l-0.814-0.244l-0.32-3.053l1.529-0.553l2.176-0.262l2.01-0.219
		l1.557,0.082l2.957,0.527l0.783,0.789l0.738,0.23l1.105-0.404l1.314-0.281l2.461,0.268l1.15-0.629l1.141-1.34l0.939-0.752
		l0.98,0.201l1.014-0.344l0.291-1.041l-0.477-1.119l-0.014-0.711l0.73-0.871l0.139-0.68l-0.83-0.17l-0.754-0.547l-0.27-0.605
		l0.172-1.223l3.242-2.01l0.379-0.316l0.957-1.219l1.791-1.834l1.637-1.475l1.213-0.93l1.301-0.623l1.559-0.287l2.689-0.078
		l1.494,0.385l2.252-0.248l3.729-0.244l-0.232,2.375l0.514,3.25l-0.117,2.492l-0.824,1.719l0.775,2.359l0.178,1.059l-0.656,1.279
		l1.234,0.883l0.271,0.213l0.385,5.424l-0.268,2.461l-1.262,5.01l-0.148,2.643l0.039,1.738l-0.016,3.535l-0.773,3.771l-0.744,0.949
		l0.668,1.105l-0.254,0.709l-1.076,0.645l0.027,0.635l0.635-0.027l0.803-0.463l1.305-0.992l0.59-0.193l0.691,0.455l1.041,0.293
		l4.068-1.057l1.621-1.004l0.742-0.555l1.809,1.154l-1.924,1.338l-2.09,0.986l-3.828,1.812l-1.299,0.205l-2.902,0.35l-1.994,0.143
		l-0.656-0.393l0.047-1.619l0.488-1.236l0.125-0.996l-1.098-0.775l-2.021-0.885l-1.703-0.9L138.751,55.359z"/>
	<circle fill="#ED1F24" cx="145.45" cy="60.779" r="2.194"/>
</g>
<g>
	<path id="IL_5_" fill="#E0E0E0" d="M212.663,60.209v-1.805l0.234-2.197l1.1-1.412l0.861-1.883l1.256-2.039l-0.234-2.824
		l-0.863-1.334l-0.158-1.57l0.393-2.666l-0.234-3.375l-0.629-7.768l-0.627-7.453l-0.393-5.648l-0.629-0.393l-0.393-1.256
		l-0.627-1.803l-0.783-0.863l-0.707-1.256L210.116,10l-4.807,0.637l-13.203,0.832l-4.217-0.207l0.113,1.15l1.109,0.334l0.443,0.555
		l0.221,0.887l1.887,1.664l0.334,1.109l-0.334,1.664l-0.889,1.777l-0.332,1.219l-1.109,0.889l-0.889,0.332l-2.551,0.666
		l-0.332,0.889l-0.334,0.998l0.334,0.666l0.887,0.777l-0.111,1.996l-0.889,0.777l-0.332,0.777v1.33l-0.889,0.223l-0.775,0.555
		l-0.111,0.666l0.111,0.998l-0.832,0.639l-0.5,1.359l0.223,1.775l1.109,3.551l3.551,3.662l2.662,1.775l-0.111,2.107l0.445,0.666
		l3.105,0.223l1.332,0.664l-0.334,1.777l-1.109,2.883l-0.332,1.555l1.109,1.887l3.107,2.551l2.219,0.334l1,2.439l0.998,1.555
		l-0.445,1.443l0.777,1.996L202.315,70l1.438-0.164l0.279-0.994l1.1-0.863l1.02-0.314l1.334,0.629l1.725,0.627l0.551-0.156
		l0.078-1.1l-0.629-1.178l0.158-1.098l0.941-0.705l1.256-0.314l0.783-0.314l-0.393-0.863l-0.312-0.941l0.549-0.393L212.663,60.209z"
		/>
	<circle fill="#ED1F24" cx="210.311" cy="14.457" r="2.193"/>
</g>
</svg>
